<?xml version="1.0" encoding="UTF-8" standalone="no"?>
<!DOCTYPE svg PUBLIC "-//W3C//DTD SVG 1.1//EN"
 "http://www.w3.org/Graphics/SVG/1.1/DTD/svg11.dtd">
<!-- Generated by graphviz version 2.38.0 (20140413.2041)
 -->
<!-- Title: Graph Pages: 1 -->
<svg width="199pt" height="207pt"
 viewBox="0.00 0.00 199.47 207.47" xmlns="http://www.w3.org/2000/svg" xmlns:xlink="http://www.w3.org/1999/xlink">
<g id="graph0" class="graph" transform="scale(1 1) rotate(0) translate(4 203.475)">
<title>Graph</title>
<polygon fill="white" stroke="none" points="-4,4 -4,-203.475 195.474,-203.475 195.474,4 -4,4"/>
<!-- 0 -->
<g id="node1" class="node"><title>0</title>
<ellipse fill="none" stroke="black" cx="18" cy="-49.2209" rx="18" ry="18"/>
<text text-anchor="middle" x="18" y="-45.5209" font-family="Times,serif" font-size="14.00">0</text>
</g>
<!-- 1 -->
<g id="node2" class="node"><title>1</title>
<ellipse fill="none" stroke="black" cx="114.088" cy="-18" rx="18" ry="18"/>
<text text-anchor="middle" x="114.088" y="-14.3" font-family="Times,serif" font-size="14.00">1</text>
</g>
<!-- 0&#45;&gt;1 -->
<g id="edge1" class="edge"><title>0&#45;&gt;1</title>
<path fill="none" stroke="black" d="M36.3648,-48.7917C51.4778,-45.6094 73.0053,-38.9065 89.5828,-32.3756"/>
<polygon fill="black" stroke="black" points="91.2909,-35.4549 99.1633,-28.3644 88.5875,-28.9979 91.2909,-35.4549"/>
</g>
<!-- 2 -->
<g id="node3" class="node"><title>2</title>
<ellipse fill="none" stroke="black" cx="18" cy="-150.254" rx="18" ry="18"/>
<text text-anchor="middle" x="18" y="-146.554" font-family="Times,serif" font-size="14.00">2</text>
</g>
<!-- 0&#45;&gt;2 -->
<g id="edge2" class="edge"><title>0&#45;&gt;2</title>
<path fill="none" stroke="black" d="M12.7332,-66.8194C11.0818,-82.2486 10.8094,-104.934 11.916,-122.757"/>
<polygon fill="black" stroke="black" points="8.43911,-123.181 12.7549,-132.857 15.4151,-122.601 8.43911,-123.181"/>
</g>
<!-- 1&#45;&gt;0 -->
<g id="edge3" class="edge"><title>1&#45;&gt;0</title>
<path fill="none" stroke="black" d="M95.7232,-18.4292C80.6102,-21.6115 59.0827,-28.3144 42.5052,-34.8453"/>
<polygon fill="black" stroke="black" points="40.7971,-31.766 32.9246,-38.8565 43.5005,-38.2229 40.7971,-31.766"/>
</g>
<!-- 1&#45;&gt;2 -->
<g id="edge4" class="edge"><title>1&#45;&gt;2</title>
<path fill="none" stroke="black" d="M100.269,-29.5846C81.3612,-50.7574 48.2781,-95.8015 30.2294,-124.513"/>
<polygon fill="black" stroke="black" points="27.1452,-122.849 24.9348,-133.21 33.1244,-126.489 27.1452,-122.849"/>
</g>
<!-- 4 -->
<g id="node5" class="node"><title>4</title>
<ellipse fill="none" stroke="black" cx="114.088" cy="-181.475" rx="18" ry="18"/>
<text text-anchor="middle" x="114.088" y="-177.775" font-family="Times,serif" font-size="14.00">4</text>
</g>
<!-- 1&#45;&gt;4 -->
<g id="edge5" class="edge"><title>1&#45;&gt;4</title>
<path fill="none" stroke="black" d="M109.718,-35.4946C106.866,-63.7376 106.577,-119.625 108.852,-153.462"/>
<polygon fill="black" stroke="black" points="105.378,-153.928 109.681,-163.61 112.355,-153.358 105.378,-153.928"/>
</g>
<!-- 2&#45;&gt;0 -->
<g id="edge6" class="edge"><title>2&#45;&gt;0</title>
<path fill="none" stroke="black" d="M23.2668,-132.655C24.9182,-117.226 25.1906,-94.5404 24.084,-76.7176"/>
<polygon fill="black" stroke="black" points="27.5609,-76.2937 23.2451,-66.6178 20.5849,-76.8732 27.5609,-76.2937"/>
</g>
<!-- 2&#45;&gt;1 -->
<g id="edge7" class="edge"><title>2&#45;&gt;1</title>
<path fill="none" stroke="black" d="M31.8188,-138.669C50.7267,-117.496 83.8099,-72.4522 101.859,-43.7404"/>
<polygon fill="black" stroke="black" points="104.943,-45.4049 107.153,-35.0432 98.9635,-41.7649 104.943,-45.4049"/>
</g>
<!-- 3 -->
<g id="node4" class="node"><title>3</title>
<ellipse fill="none" stroke="black" cx="173.474" cy="-99.7373" rx="18" ry="18"/>
<text text-anchor="middle" x="173.474" y="-96.0373" font-family="Times,serif" font-size="14.00">3</text>
</g>
<!-- 3&#45;&gt;1 -->
<g id="edge8" class="edge"><title>3&#45;&gt;1</title>
<path fill="none" stroke="black" d="M162.857,-85.1243C153.96,-72.8797 141.102,-55.1822 130.822,-41.033"/>
<polygon fill="black" stroke="black" points="133.523,-38.795 124.813,-32.7621 127.86,-42.9095 133.523,-38.795"/>
</g>
<!-- 3&#45;&gt;2 -->
<g id="edge9" class="edge"><title>3&#45;&gt;2</title>
<path fill="none" stroke="black" d="M156.241,-105.336C129.274,-114.098 76.8858,-131.121 44.9144,-141.509"/>
<polygon fill="black" stroke="black" points="43.7386,-138.211 35.3096,-144.629 45.9018,-144.868 43.7386,-138.211"/>
</g>
<!-- 3&#45;&gt;4 -->
<g id="edge10" class="edge"><title>3&#45;&gt;4</title>
<path fill="none" stroke="black" d="M162.857,-114.35C153.96,-126.595 141.102,-144.292 130.822,-158.442"/>
<polygon fill="black" stroke="black" points="127.86,-156.565 124.813,-166.713 133.523,-160.68 127.86,-156.565"/>
</g>
<!-- 4&#45;&gt;1 -->
<g id="edge11" class="edge"><title>4&#45;&gt;1</title>
<path fill="none" stroke="black" d="M118.458,-163.98C121.31,-135.737 121.599,-79.8498 119.324,-46.0127"/>
<polygon fill="black" stroke="black" points="122.798,-45.5464 118.495,-35.8644 115.821,-46.1161 122.798,-45.5464"/>
</g>
<!-- 4&#45;&gt;2 -->
<g id="edge12" class="edge"><title>4&#45;&gt;2</title>
<path fill="none" stroke="black" d="M96.9093,-175.893C82.515,-171.216 61.7103,-164.456 45.0769,-159.052"/>
<polygon fill="black" stroke="black" points="45.946,-155.654 35.3538,-155.892 43.7828,-162.311 45.946,-155.654"/>
</g>
</g>
</svg>
